# xmcd
# 
# Track frame offsets:
#     150
#     12969
#     25216
#     36849
#     51857
#     65472
#     75883
#     89794
#     103015
#     113475
#     126222
#     139266
#     153675
#     168919
#     181326
#     195826
#     208717
#     220869
#     232447
#     245985
#     257256
#     269049
#     281634
#     293055
#     306537
# 
# Disc length: 4275
# 
# Revision: 3
# Processed by: cddbd v1.5.2PL0 Copyright (c) Steve Scherf et al.
# Submitted via: fre:ac v1.0.17
# 
DISCID=7710b119
DTITLE=Ray Charles - The Essence of Ray Charles - Disc 1
DYEAR=2007
DGENRE=Blues
TTITLE0=I got a woman
TTITLE1=It should`ve been me
TTITLE2=Lonely avenue
TTITLE3=Drown in my own tears
TTITLE4=A fool for you
TTITLE5=A bit of soul
TTITLE6=Come back baby
TTITLE7=Don`t you know
TTITLE8=Blackjack
TTITLE9=Greenbacks
TTITLE10=Baby, won`t you please come home?
TTITLE11=Losing hand
TTITLE12=Sinner`s prayer
TTITLE13=Jumpin` in the morning
TTITLE14=Funny, but I still love you
TTITLE15=Snowfall
TTITLE16=Honey Honey
TTITLE17=C.C. Rider
TTITLE18=Baby, let me hold your hand
TTITLE19=Confession blues
TTITLE20=The sun`s gonna shine
TTITLE21=Blues before sunrise
TTITLE22=What have I done?
TTITLE23=The midnight hour
TTITLE24=Blues is my middle name
EXTD=Tracks 1-16, 21 and 23-25 performed by Ray Charles\nTracks 17-19 performed by The Ray Charles Trio\nTracks 20 and 22 performed by Ray Charles and The Maxim Trio
EXTT0=
EXTT1=
EXTT2=
EXTT3=
EXTT4=
EXTT5=
EXTT6=
EXTT7=
EXTT8=
EXTT9=
EXTT10=
EXTT11=
EXTT12=
EXTT13=
EXTT14=
EXTT15=
EXTT16=
EXTT17=
EXTT18=
EXTT19=
EXTT20=
EXTT21=
EXTT22=
EXTT23=
EXTT24=
PLAYORDER=
